<?xml version="1.0" standalone="no"?>
<!DOCTYPE svg PUBLIC "-//W3C//DTD SVG 20010904//EN"
 "http://www.w3.org/TR/2001/REC-SVG-20010904/DTD/svg10.dtd">
<svg version="1.0" xmlns="http://www.w3.org/2000/svg"
 width="512.000000pt" height="512.000000pt" viewBox="0 0 512.000000 512.000000"
 preserveAspectRatio="xMidYMid meet">

<g transform="translate(0.000000,512.000000) scale(0.100000,-0.100000)"
fill="#000000" stroke="none">
<path d="M4090 5105 c-36 -8 -103 -33 -150 -56 l-85 -42 -1757 -1755 c-966
-965 -1763 -1769 -1772 -1786 -9 -17 -86 -312 -172 -656 -120 -483 -155 -635
-151 -669 8 -73 64 -130 138 -138 34 -4 186 30 671 151 345 85 640 162 655
170 16 8 814 801 1775 1763 1301 1302 1757 1764 1787 1813 63 98 86 183 86
315 0 131 -25 220 -88 318 -51 81 -393 426 -477 482 -131 87 -314 123 -460 90z
m-365 -1385 l340 -340 -1338 -1338 -1337 -1337 -342 343 -343 342 1335 1335
c734 734 1337 1335 1340 1335 3 0 158 -153 345 -340z"/>
</g>
</svg>
