<?xml version="1.0" standalone="no"?>
<!DOCTYPE svg PUBLIC "-//W3C//DTD SVG 20010904//EN"
 "http://www.w3.org/TR/2001/REC-SVG-20010904/DTD/svg10.dtd">
<svg version="1.0" xmlns="http://www.w3.org/2000/svg"
 width="512.000000pt" height="512.000000pt" viewBox="0 0 512.000000 512.000000"
 preserveAspectRatio="xMidYMid meet">

<g transform="translate(0.000000,512.000000) scale(0.100000,-0.100000)"
fill="#000000" stroke="none">
<path d="M2315 5101 c-50 -22 -91 -69 -105 -119 -5 -20 -10 -92 -10 -159 l0
-123 -727 0 c-711 0 -729 -1 -773 -21 -56 -25 -96 -62 -123 -114 -30 -57 -36
-203 -12 -276 22 -66 87 -133 145 -150 23 -7 44 -18 46 -23 2 -6 49 -875 103
-1931 55 -1056 102 -1943 105 -1971 8 -96 71 -177 155 -203 47 -14 415 -15
440 -1 10 5 24 23 31 40 l12 30 94 0 c91 0 95 -1 104 -24 22 -59 -44 -56 1109
-56 760 0 1064 3 1092 11 84 26 144 104 154 201 13 121 156 2945 150 2966 -3
13 -19 31 -35 40 -28 16 -30 21 -30 77 0 99 9 133 36 139 47 12 51 32 69 366
9 173 19 318 23 321 4 4 25 12 46 19 56 18 120 86 141 149 24 73 18 219 -12
276 -27 52 -67 89 -123 114 -44 20 -62 21 -772 21 l-728 0 0 123 c0 138 -9
183 -47 228 -52 62 -84 69 -313 69 -178 0 -210 -3 -245 -19z m439 -147 c13
-12 16 -40 16 -135 l0 -119 -210 0 -210 0 0 116 c0 63 5 124 10 135 10 18 23
19 195 19 154 0 186 -3 199 -16z m1616 -419 c37 -19 53 -70 48 -147 -4 -47
-10 -64 -31 -86 l-27 -27 -1800 0 -1800 0 -27 27 c-23 23 -28 38 -31 93 -5 76
9 120 47 140 40 22 3578 22 3621 0z m-2715 -930 l25 -24 0 -1102 0 -1103 -22
-23 c-28 -30 -78 -31 -104 -2 -18 20 -19 55 -22 1098 -2 592 0 1091 3 1109 13
69 75 93 120 47z m949 4 l26 -20 0 -1110 c0 -1096 0 -1109 -20 -1129 -26 -26
-74 -26 -100 0 -20 20 -20 33 -20 1129 l0 1110 26 20 c15 12 34 21 44 21 10 0
29 -9 44 -21z m955 2 c11 -11 23 -35 26 -53 3 -18 5 -517 3 -1109 -3 -1043 -4
-1078 -22 -1098 -25 -28 -73 -27 -103 1 l-23 21 0 1104 0 1104 25 24 c29 30
68 32 94 6z"/>
</g>
</svg>
